<svg width="1280" height="640" viewBox="0 0 1280 640" xmlns="http://www.w3.org/2000/svg">
  <defs>
    <linearGradient id="g" x1="0" y1="0" x2="1" y2="1">
      <stop offset="0" stop-color="#22d3ee"/>
      <stop offset="0.5" stop-color="#8b5cf6"/>
      <stop offset="1" stop-color="#e879f9"/>
    </linearGradient>
    <radialGradient id="glow" cx="50%" cy="45%" r="60%">
      <stop offset="0" stop-color="#7c63ff" stop-opacity="0.35"/>
      <stop offset="1" stop-color="#7c63ff" stop-opacity="0"/>
    </radialGradient>
  </defs>

  <rect width="1280" height="640" fill="#05060c"/>
  <ellipse cx="640" cy="290" rx="560" ry="320" fill="url(#glow)"/>
  <circle cx="1050" cy="140" r="6" fill="#22d3ee" opacity="0.6"/>
  <circle cx="200" cy="500" r="5" fill="#e879f9" opacity="0.6"/>
  <circle cx="1120" cy="470" r="4" fill="#8b5cf6" opacity="0.6"/>
  <circle cx="150" cy="160" r="4" fill="#22d3ee" opacity="0.5"/>

  <!-- щит -->
  <g transform="translate(300,210) scale(4.4)">
    <path d="M20 3.5 L33 8 V19.5 C33 28 27.5 33.6 20 36.5 C12.5 33.6 7 28 7 19.5 V8 Z" fill="url(#g)"/>
    <path d="M15 14 V26 M25 14 V26 M15 20 H25" stroke="#05060c" stroke-width="2.6"
          stroke-linecap="round" fill="none"/>
  </g>

  <!-- текст -->
  <text x="500" y="320" font-family="Helvetica Neue, Arial, sans-serif" font-weight="800"
        font-size="96" fill="url(#g)" letter-spacing="-2">HamaliVpn</text>
  <text x="503" y="380" font-family="Helvetica Neue, Arial, sans-serif" font-weight="500"
        font-size="38" fill="#c9d2ee">Интернет без границ</text>
  <text x="503" y="430" font-family="Helvetica Neue, Arial, sans-serif" font-weight="400"
        font-size="26" fill="#8b95b8">Скорость   ·   Обход блокировок   ·   Без логов</text>
</svg>
